<svg width="195" height="75" viewBox="0 0 195 75" fill="none" xmlns="http://www.w3.org/2000/svg">
<path d="M32.7031 24.7576H42.4687C46.7137 24.7576 49.9391 25.3974 52.1448 26.6749C54.3487 27.9545 55.4515 30.14 55.4515 33.2313C55.4515 35.2462 54.8909 36.9179 53.7697 38.2441C52.6526 39.5664 51.042 40.4195 48.9357 40.8033V41.0389C50.3697 41.2948 51.6696 41.7254 52.8354 42.3307C54.0053 42.9381 54.9234 43.8012 55.5896 44.9224C56.2599 46.0395 56.597 47.4734 56.597 49.2283C56.597 52.3278 55.5348 54.7245 53.4123 56.4184C51.2877 58.1083 48.3914 58.9532 44.7191 58.9532H32.7031V24.7576ZM37.0091 39.3165H43.338C46.2405 39.3165 48.2411 38.8453 49.3419 37.9029C50.4468 36.9604 50.9993 35.563 50.9993 33.7107C50.9993 31.832 50.3352 30.4853 49.0088 29.6728C47.6805 28.8563 45.5662 28.4461 42.6637 28.4461H37.0091V39.3165ZM37.0091 42.9075V55.3135H43.9067C46.9392 55.3135 49.0454 54.7245 50.2275 53.5424C51.4137 52.3624 52.0067 50.8126 52.0067 48.8952C52.0067 47.1078 51.3914 45.6657 50.1625 44.5649C48.9316 43.46 46.7361 42.9075 43.5736 42.9075H37.0091Z" fill="#451F99"/>
<path d="M76.0859 43.9097C76.0859 52.7226 81.2105 59.9067 93.5656 59.9067C100.845 59.9067 111.622 55.9785 111.622 46.353C111.622 40.4609 107.168 38.8807 104.724 38.8807C99.6955 38.8807 97.11 42.8555 93.3747 42.8555C91.4594 42.8555 90.454 41.0844 90.454 39.5997C90.454 36.2463 95.4342 34.2355 99.1227 34.2355C103.815 34.2355 104.485 35.5294 108.748 35.5294C113.586 35.5294 114.112 31.8896 113.393 31.1219C112.579 32.1272 111.813 32.5111 110.377 32.5111C107.263 32.5111 105.348 31.1706 101.085 31.1706C95.6252 31.1706 89.9746 35.4319 89.9746 39.5997C89.9746 41.6105 91.3639 43.3348 93.3747 43.3348C96.7281 43.3348 98.2596 40.6538 102.139 40.6538C105.588 40.6538 107.168 43.5257 107.168 46.9746C107.168 52.3388 102.427 59.3318 93.519 59.3318C85.3296 59.3318 80.205 52.3875 80.205 45.2034C80.205 36.9165 85.3296 30.6913 92.416 30.6913C93.9008 30.6913 95.0504 30.3073 95.0504 28.8714C95.0504 27.7706 93.9496 27.34 92.3206 27.34C88.7296 27.34 82.5023 27.0515 82.5023 20.1071C82.5023 17.1864 84.9456 10.6727 93.854 10.6727C101.613 10.6727 104.15 15.0782 104.15 18.6712C104.15 20.4911 103.289 23.3631 100.989 23.3631C99.9839 23.3631 99.1695 23.0278 98.5946 22.0225C98.2128 22.2154 97.9731 22.6928 97.9731 23.2209C97.9731 25.3271 99.8398 26.43 101.948 26.43C105.013 26.43 107.934 24.1774 107.934 19.5324C107.934 13.1141 99.7442 10.0979 93.854 10.0979C82.7907 10.0979 78.3364 15.653 78.3364 20.2514C78.3364 26.237 83.3167 28.2499 88.1548 28.2499C89.8305 28.2499 90.7404 27.8172 92.3206 27.8172C93.7099 27.8172 94.5711 28.0569 94.5711 28.9202C94.5711 29.9723 93.6144 30.2607 91.3639 30.2607C82.7907 30.2607 76.0859 36.7744 76.0859 43.9097Z" fill="#451F99"/>
<path d="M135.242 24.7576H139.264V43.5331C139.264 44.6177 139.248 45.806 139.215 47.0997C139.183 48.3955 139.134 49.5919 139.069 50.6907C139.008 51.7916 138.963 52.5817 138.931 53.063H139.118L157.942 24.7576H162.728V58.9532H158.705V40.3727C158.705 39.2252 158.73 37.9719 158.779 36.6111C158.827 35.2524 158.884 34.0153 158.949 32.8982C159.014 31.7832 159.059 30.9849 159.087 30.5015H158.9L140.027 58.9532H135.242V24.7576Z" fill="#451F99"/>
<mask id="mask0_1205_2" style="mask-type:luminance" maskUnits="userSpaceOnUse" x="40" y="50" width="116" height="14">
<path d="M40.8984 50.0667H155.262V63.3866H40.8984V50.0667Z" fill="white"/>
</mask>
<g mask="url(#mask0_1205_2)">
<path d="M40.8984 50.0667H155.26V63.3866H40.8984V50.0667Z" fill="white"/>
</g>
<path d="M58.1764 56.7332H56.974V59.1624H56.4297V53.8733H56.974V56.2458H58.1764L59.9719 53.8733H60.5731L58.6152 56.4408L60.6869 59.1624H60.0451L58.1764 56.7332Z" fill="#451F99"/>
<path d="M66.4507 59.2097C65.9246 59.2097 65.4474 59.094 65.0208 58.8604C64.5984 58.6228 64.2653 58.2998 64.0215 57.8936C63.7819 57.4833 63.6641 57.0243 63.6641 56.5205C63.6641 56.0128 63.7819 55.5537 64.0215 55.1475C64.2653 54.7372 64.5984 54.4144 65.0208 54.1807C65.4474 53.9432 65.9246 53.8232 66.4507 53.8232C66.9707 53.8232 67.4419 53.941 67.8644 54.1726C68.2869 54.4063 68.6159 54.7291 68.8556 55.1394C69.0993 55.5518 69.2212 56.0128 69.2212 56.5205C69.2212 57.0243 69.0993 57.4833 68.8556 57.8936C68.6159 58.306 68.2869 58.6288 67.8644 58.8604C67.4419 59.094 66.9707 59.2097 66.4507 59.2097ZM66.4507 58.706C66.867 58.706 67.2429 58.6126 67.58 58.4217C67.9151 58.2329 68.1772 57.9729 68.3681 57.6417C68.5631 57.3067 68.6606 56.9329 68.6606 56.5205C68.6606 56.1043 68.5631 55.7305 68.3681 55.3994C68.1772 55.0643 67.9151 54.8022 67.58 54.6113C67.2429 54.4225 66.867 54.327 66.4507 54.327C66.0283 54.327 65.6464 54.4225 65.3052 54.6113C64.968 54.8022 64.704 55.0643 64.509 55.3994C64.314 55.7305 64.2165 56.1043 64.2165 56.5205C64.2165 56.9329 64.314 57.3067 64.509 57.6417C64.704 57.9729 64.968 58.2329 65.3052 58.4217C65.6464 58.6126 66.0283 58.706 66.4507 58.706Z" fill="#451F99"/>
<path d="M77.2628 56.7332H76.166V59.1624H75.6216V56.7332H74.5167L72.8999 59.1624H72.25L74.0699 56.4326L72.3881 53.8733H72.9893L74.5086 56.2458H75.6216V53.8733H76.166V56.2458H77.2628L78.7901 53.8733H79.3914L77.7177 56.4326L79.5295 59.1624H78.8795L77.2628 56.7332Z" fill="#451F99"/>
<path d="M86.7294 58.675V59.1624H82.9922V53.8733H86.6157V54.3609H83.5528V56.2377H86.2826V56.717H83.5528V58.675H86.7294Z" fill="#451F99"/>
<path d="M95.8905 53.8733V59.1624H95.3543V54.9296L93.2745 58.4881H93.0145L90.9346 54.954V59.1624H90.3984V53.8733H90.8534L93.1526 57.7975L95.4274 53.8733H95.8905Z" fill="#451F99"/>
<path d="M103.831 53.8733V59.1624H103.278V57.5619H101.702C101.631 57.5619 101.532 57.5579 101.402 57.5457L100.289 59.1624H99.6875L100.89 57.4482C100.504 57.3345 100.207 57.1313 99.9961 56.8389C99.7891 56.5423 99.6875 56.1787 99.6875 55.7502C99.6875 55.155 99.8742 54.694 100.248 54.369C100.626 54.04 101.136 53.8733 101.775 53.8733H103.831ZM100.248 55.7339C100.248 56.1686 100.374 56.5015 100.63 56.7332C100.884 56.9667 101.255 57.0826 101.743 57.0826H103.278V54.3609H101.8C101.306 54.3609 100.924 54.4787 100.654 54.7103C100.382 54.9438 100.248 55.285 100.248 55.7339Z" fill="#451F99"/>
<path d="M109.77 56.7332H108.568V59.1624H108.023V53.8733H108.568V56.2458H109.77L111.566 53.8733H112.167L110.209 56.4408L112.281 59.1624H111.639L109.77 56.7332Z" fill="#451F99"/>
<path d="M115.719 53.8733H116.271V58.2525L119.651 53.8733H120.163V59.1624H119.61V54.7915L116.222 59.1624H115.719V53.8733Z" fill="#451F99"/>
<path d="M128.771 53.8733V59.1624H128.219V56.7251H124.912V59.1624H124.352V53.8733H124.912V56.2295H128.219V53.8733H128.771Z" fill="#451F99"/>
<path d="M135.171 55.7664C135.798 55.7664 136.276 55.9086 136.601 56.1889C136.93 56.4712 137.096 56.8835 137.096 57.4238C137.096 57.9925 136.92 58.4272 136.568 58.7237C136.221 59.0162 135.717 59.1624 135.057 59.1624H132.961V53.8733H133.513V55.7664H135.171ZM135.041 58.7156C135.532 58.7156 135.906 58.6079 136.162 58.3906C136.416 58.1753 136.544 57.8544 136.544 57.4319C136.544 56.6195 136.042 56.2133 135.041 56.2133H133.513V58.7156H135.041ZM138.014 53.8733H138.567V59.1624H138.014V53.8733Z" fill="#451F99"/>
</svg>
