<svg width="297" height="143" viewBox="0 0 297 143" fill="none" xmlns="http://www.w3.org/2000/svg">
<path d="M77.3226 91.3923C72.9191 91.3923 69.1661 89.8411 66.0636 86.7386C62.9611 83.536 61.4099 79.733 61.4099 75.3295C61.4099 70.9259 62.9611 67.1729 66.0636 64.0705C69.1661 60.968 72.9191 59.4167 77.3226 59.4167C81.626 59.4167 85.329 61.018 88.4315 64.2206C91.634 67.3231 93.2353 71.026 93.2353 75.3295C93.2353 79.733 91.634 83.536 88.4315 86.7386C85.329 89.8411 81.626 91.3923 77.3226 91.3923ZM148.278 91.3923C143.874 91.3923 140.121 89.8411 137.019 86.7386C133.916 83.536 132.365 79.733 132.365 75.3295C132.365 70.9259 133.916 67.1729 137.019 64.0705C140.121 60.968 143.874 59.4167 148.278 59.4167C152.581 59.4167 156.284 61.018 159.387 64.2206C162.589 67.3231 164.191 71.026 164.191 75.3295C164.191 79.733 162.589 83.536 159.387 86.7386C156.284 89.8411 152.581 91.3923 148.278 91.3923ZM219.233 91.3923C214.829 91.3923 211.076 89.8411 207.974 86.7386C204.871 83.536 203.32 79.733 203.32 75.3295C203.32 70.9259 204.871 67.1729 207.974 64.0705C211.076 60.968 214.829 59.4167 219.233 59.4167C223.536 59.4167 227.239 61.018 230.342 64.2206C233.544 67.3231 235.146 71.026 235.146 75.3295C235.146 79.733 233.544 83.536 230.342 86.7386C227.239 89.8411 223.536 91.3923 219.233 91.3923Z" fill="url(#paint0_linear_1024_7643)"/>
<defs>
<linearGradient id="paint0_linear_1024_7643" x1="244.004" y1="-7.52064" x2="-85.621" y2="61.8385" gradientUnits="userSpaceOnUse">
<stop stop-color="#E343FF"/>
<stop offset="1" stop-color="#5413F8"/>
</linearGradient>
</defs>
</svg>
