<svg width="298" height="140" viewBox="0 0 298 140" fill="none" xmlns="http://www.w3.org/2000/svg">
<path d="M168.933 97.4388C269.697 68.8907 252.891 -22.6977 253.428 -25.0675L280.476 -16.7533L313.431 21.8842L315.557 50.9649C292.481 91.3027 224.498 131.089 176.937 130.179C141.437 126.545 136.274 105.422 168.933 97.4388Z" fill="url(#paint0_linear_1024_7641)"/>
<path d="M199.88 54.5564C94.0269 81.9549 46.957 12.6975 33.4 -12.3091L-6.54857 -7.61411L-30.0469 72.4959C0.140081 88.4422 93.3762 123.923 196.626 96.9589C244.347 84.4967 247.059 39.335 199.88 54.5564Z" fill="url(#paint1_linear_1024_7641)"/>
<defs>
<linearGradient id="paint0_linear_1024_7641" x1="314.607" y1="9.38762" x2="38.2171" y2="184.423" gradientUnits="userSpaceOnUse">
<stop stop-color="#E343FF"/>
<stop offset="1" stop-color="#5413F8"/>
</linearGradient>
<linearGradient id="paint1_linear_1024_7641" x1="239.785" y1="29.718" x2="-140.381" y2="239.958" gradientUnits="userSpaceOnUse">
<stop stop-color="#E343FF"/>
<stop offset="1" stop-color="#5413F8"/>
</linearGradient>
</defs>
</svg>
