<svg width="227" height="144" viewBox="0 0 227 144" fill="none" xmlns="http://www.w3.org/2000/svg">
<path d="M120.665 0.450138C100.884 -35.1144 40.7256 -49.8212 14.1021 3.64733C-12.5215 57.1159 16.5849 135.105 41.4219 174.22C41.4219 174.22 41.4219 157.874 46.6042 146.111C51.7865 134.348 35.6277 100.134 35.6277 100.134C35.6277 100.134 63.4672 120.6 73.4713 109.877C83.4755 99.1547 65.7571 50.6644 65.7571 50.6644C65.7571 50.6644 95.3188 79.9536 100.394 76.1668C105.469 72.3799 98.2163 41.2198 98.2163 41.2198C98.2163 41.2198 110.211 55.2315 119.339 49.0568C128.467 42.882 120.665 0.450138 120.665 0.450138Z" fill="url(#paint0_linear_1024_7640)"/>
<path d="M136.802 66.2529C142.135 58.1252 135.635 27.3396 135.635 27.3396C163.65 12.8797 231.408 29.6884 222.983 90.0133C214.558 150.338 102.694 171.365 49.8133 177.416L73.5988 161.112L68.1725 130.78C68.1725 130.78 85.5134 146.221 94.473 137.376C103.433 128.531 86.4066 79.9734 86.4066 79.9734C86.4066 79.9734 112.399 105.232 117.435 102.055C122.471 98.8788 116.174 60.0378 116.174 60.0378C116.174 60.0378 131.47 74.3805 136.802 66.2529Z" fill="url(#paint1_linear_1024_7640)"/>
<defs>
<linearGradient id="paint0_linear_1024_7640" x1="126.756" y1="39.0219" x2="-94.8483" y2="78.4873" gradientUnits="userSpaceOnUse">
<stop stop-color="#E343FF"/>
<stop offset="1" stop-color="#5413F8"/>
</linearGradient>
<linearGradient id="paint1_linear_1024_7640" x1="227.51" y1="73.9198" x2="-76.2332" y2="172.234" gradientUnits="userSpaceOnUse">
<stop stop-color="#E343FF"/>
<stop offset="1" stop-color="#5413F8"/>
</linearGradient>
</defs>
</svg>
