<svg width="298" height="144" viewBox="0 0 298 144" fill="none" xmlns="http://www.w3.org/2000/svg">
<path d="M190.453 95.2581C183.674 101.364 201.126 146.358 210.854 169.782C214.571 178.142 216.867 183.872 216.867 183.872C216.867 183.872 214.363 178.23 210.854 169.782C200.469 146.418 178.994 102.518 165.563 105.781C147.328 110.212 136.165 168.365 136.165 168.365C136.165 168.365 138.334 110.766 127.518 105.781C116.702 100.796 18.5697 150.642 18.5697 150.642C18.5697 150.642 108.393 103.566 111.377 93.0427C114.362 82.5198 -54.0625 82.5198 -54.0625 82.5198C-54.0625 82.5198 95.2369 78.6429 100.425 67.0123C105.613 55.3816 -50.6038 -42.0941 -50.6038 -42.0941C-50.6038 -42.0941 119.809 58.1508 124.636 52.6124C129.462 47.074 95.2369 -11.633 95.2369 -11.633C95.2369 -11.633 138.158 36.1939 147.117 39.8741C156.076 43.5543 197.844 -73.1091 197.844 -73.1091C197.844 -73.1091 175.657 54.2739 188.045 47.074C200.433 39.8741 291.228 -25.4789 291.228 -25.4789C291.228 -25.4789 195.538 58.1508 202.456 62.5815C209.373 67.0123 295.84 62.5815 295.84 62.5815C295.84 62.5815 205.007 76.4275 209.373 82.5198C213.74 88.612 352.908 155.073 352.908 155.073C352.908 155.073 199.676 86.9505 190.453 95.2581Z" fill="url(#paint0_linear_1024_7642)"/>
<defs>
<linearGradient id="paint0_linear_1024_7642" x1="362.02" y1="17.5902" x2="-300.101" y2="279.222" gradientUnits="userSpaceOnUse">
<stop stop-color="#E343FF"/>
<stop offset="1" stop-color="#5413F8"/>
</linearGradient>
</defs>
</svg>
