<svg width="1247" height="808" viewBox="0 0 1247 808" fill="none" xmlns="http://www.w3.org/2000/svg">
<g clip-path="url(#clip0_1006_6979)">
<path d="M1046.89 297.207C918.283 479.229 944.231 728.01 982.395 836.668L-155.023 814.17C573.924 814.17 901.4 426.364 1127.88 181.715L1139.49 181.715C1144.39 178.655 1144.39 181.716 1144.39 181.716L1139.49 181.715C1131.12 186.952 1108.43 210.114 1046.89 297.207Z" fill="url(#paint0_linear_1006_6979)"/>
<path d="M1230.73 190.719C1209.6 186.822 1172.08 182.105 1158.27 194.371C1138.61 211.838 1134.35 269.746 1134.35 269.746C1134.35 269.746 1137.55 210.292 1117.1 196.943C1096.83 183.711 1040.68 211.279 1039.69 211.767C1039.68 211.771 1039.68 211.774 1039.68 211.774C1039.68 211.774 1039.68 211.771 1039.69 211.767C1040.68 211.278 1096.83 183.449 1103.91 158.896C1109.29 140.234 1089.19 107.053 1078.95 91.8248C1075.38 86.9773 1073.31 83.7794 1073.31 83.7794C1073.31 83.7794 1075.6 86.8407 1078.95 91.8248C1089.03 105.488 1111.07 132.258 1132.44 137.461C1156.98 143.438 1192.41 111.478 1202.62 101.614C1204.39 99.8037 1205.47 98.786 1205.47 98.786C1205.47 98.786 1204.45 99.8445 1202.62 101.614C1194.15 110.267 1169.91 137.026 1172.46 157.4C1174.63 174.722 1209.95 185.716 1230.73 190.719C1239.68 192.371 1245.69 193.875 1245.69 193.875C1245.69 193.875 1239.5 192.831 1230.73 190.719Z" fill="url(#paint1_linear_1006_6979)"/>
<path d="M1103.21 76.6588C1102.65 68.9353 1100.71 58.1599 1094.39 56.1197C1088.37 54.1748 1077.85 58.2356 1070.38 61.8033C1065.67 64.5783 1061.75 66.3558 1061.75 66.3558C1061.75 66.3558 1065.38 64.1899 1070.38 61.8033C1077.24 57.7582 1085.8 51.5933 1086.4 45.7241C1087.26 37.1939 1068.89 25.5687 1063.81 22.5233C1062.98 22.0469 1062.52 21.7682 1062.52 21.7682C1062.52 21.7682 1062.99 22.0358 1063.81 22.5233C1069.01 25.5353 1088.57 36.4473 1095.89 34.7249C1104.37 32.7302 1113.67 7.31441 1113.67 7.31441C1113.67 7.31441 1107.75 30.2253 1110.71 39.2246C1112.85 45.726 1124.8 51.6514 1131.26 54.44C1133.78 55.3497 1135.43 56.1197 1135.43 56.1197C1135.43 56.1197 1133.75 55.5114 1131.26 54.44C1125.43 52.3295 1114.91 49.4674 1109.39 53.7236C1104.43 57.553 1103.33 68.8201 1103.21 76.6588C1103.54 81.223 1103.39 84.7213 1103.39 84.7213C1103.39 84.7213 1103.13 81.2879 1103.21 76.6588Z" fill="url(#paint2_linear_1006_6979)"/>
</g>
<defs>
<linearGradient id="paint0_linear_1006_6979" x1="1173.48" y1="411.995" x2="-791.222" y2="1382.56" gradientUnits="userSpaceOnUse">
<stop stop-color="#E343FF"/>
<stop offset="1" stop-color="#5413F8"/>
</linearGradient>
<linearGradient id="paint1_linear_1006_6979" x1="1124.37" y1="84.8249" x2="1162.87" y2="411.448" gradientUnits="userSpaceOnUse">
<stop stop-color="#E343FF"/>
<stop offset="1" stop-color="#5413F8"/>
</linearGradient>
<linearGradient id="paint2_linear_1006_6979" x1="1122.64" y1="22.8512" x2="1019.59" y2="104.525" gradientUnits="userSpaceOnUse">
<stop stop-color="#E343FF"/>
<stop offset="1" stop-color="#5413F8"/>
</linearGradient>
<clipPath id="clip0_1006_6979">
<rect width="1247" height="808" fill="white"/>
</clipPath>
</defs>
</svg>
